<svg width="15" height="12" viewBox="0 0 15 12" fill="none" xmlns="http://www.w3.org/2000/svg">
<path d="M13.5353 0.0147059L7.49706 0.0294118L1.45882 0H1.45588C0.644118 0 0 0.761765 0 1.71471V9.69706C0 10.65 0.644118 11.4118 1.45588 11.4118H13.5441C14.3559 11.4118 15 10.65 15 9.69706V1.71471C15 0.761765 14.3618 0.0147059 13.5353 0.0147059ZM13.0618 1.19118L7.66765 6.12353L7.64706 6.14118L7.62941 6.16176C7.56471 6.23235 7.48823 6.24118 7.44706 6.24118C7.40588 6.24118 7.32941 6.22941 7.26765 6.15588L7.25 6.13529L2.09412 1.16765L7.49706 1.20294L13.0618 1.19118ZM13.5441 10.2353H1.45588C1.35294 10.2353 1.17647 10.0412 1.17647 9.69706V1.90294L6.4 6.95C6.66471 7.24412 7.03824 7.41471 7.43529 7.42059H7.45294C7.84412 7.42059 8.20882 7.25882 8.47647 6.97647L13.8294 2.07647V9.69706C13.8235 10.0412 13.6471 10.2353 13.5441 10.2353Z" fill="white"/>
</svg>
