<svg width="12" height="10" viewBox="0 0 12 10" fill="none" xmlns="http://www.w3.org/2000/svg">
<path d="M12 1.38948H11.5254C11.3492 1.38948 11.1 1.64175 11.1 1.80325V7.65699C11.1 7.8187 11.3492 8.0391 11.5254 8.0391H12V9.42857H7.7V8.0391H8.6V1.88572H8.5559L6.45422 9.42857H4.82707L2.7525 1.88572H2.7V8.0391H3.6V9.42857H0V8.0391H0.460977C0.65082 8.0391 0.9 7.8187 0.9 7.65699V1.80325C0.9 1.64175 0.65082 1.38948 0.460977 1.38948H0V3.61374e-06H4.50164L5.97961 5.45865H6.02027L7.51191 3.61374e-06H12V1.38948Z" fill="white"/>
</svg>
